<svg xmlns="http://www.w3.org/2000/svg" width="15" height="15" viewBox="0 0 15 15">
    <g fill="none" fill-rule="evenodd">
        <g fill="#181925">
            <g>
                <g>
                    <g>
                        <path d="M14.682.318c.424.424.424 1.11 0 1.535L9.035 7.5l5.647 5.647c.424.424.424 1.111 0 1.535-.424.424-1.11.424-1.535 0L7.5 9.035l-5.647 5.647c-.424.424-1.111.424-1.535 0-.424-.424-.424-1.11 0-1.535L5.965 7.5.318 1.853C-.106 1.429-.106.742.318.318c.424-.424 1.11-.424 1.535 0L7.5 5.965 13.147.318c.424-.424 1.111-.424 1.535 0z" transform="translate(-675 -236) translate(125 10) translate(28 76) translate(271 55) translate(251 95)"/>
                    </g>
                </g>
            </g>
        </g>
    </g>
</svg>
