<?xml version="1.0" standalone="no"?>
<!DOCTYPE svg PUBLIC "-//W3C//DTD SVG 20010904//EN"
 "http://www.w3.org/TR/2001/REC-SVG-20010904/DTD/svg10.dtd">
<svg version="1.0" xmlns="http://www.w3.org/2000/svg"
 width="147.000000pt" height="147.000000pt" viewBox="0 0 147.000000 147.000000"
 preserveAspectRatio="xMidYMid meet">

<g transform="translate(0.000000,147.000000) scale(0.100000,-0.100000)"
fill="#000000" stroke="none">
<path d="M721 1378 c-4 -13 -41 -123 -82 -245 l-74 -223 -260 -2 c-222 -3
-260 -5 -262 -18 -2 -9 36 -43 95 -85 53 -38 147 -106 208 -152 l112 -82 -79
-243 c-43 -134 -79 -246 -79 -250 0 -23 47 6 234 143 l206 150 206 -150 c190
-139 234 -166 234 -142 0 4 -36 118 -79 251 -73 223 -78 245 -63 256 9 7 104
75 209 151 120 86 192 144 190 153 -2 13 -40 15 -262 18 l-260 2 -81 242 c-44
133 -85 243 -92 246 -7 2 -16 -7 -21 -20z m94 -270 c37 -117 72 -219 78 -225
7 -9 72 -13 241 -15 l233 -3 -188 -135 c-103 -74 -188 -142 -188 -150 0 -8 31
-111 69 -229 38 -118 68 -216 67 -218 -2 -1 -87 58 -190 132 -103 74 -191 135
-197 135 -8 0 -265 -180 -366 -257 l-32 -24 74 227 c41 125 73 233 70 239 -2
7 -88 72 -190 146 l-185 134 237 5 237 5 75 223 c41 122 78 222 81 222 3 0 36
-96 74 -212z"/>
</g>
</svg>
