<svg xmlns="http://www.w3.org/2000/svg" width="15" height="15" viewBox="0 0 9 14">
    <g fill="none" fill-rule="evenodd">
        <g fill="#fff">
            <g>
                <g>
                    <path d="M11.927.358l.724.729c.193.194.193.509 0 .704l-5.79 5.85c-.195.197-.511.198-.707.004l-.004-.003-5.8-5.85c-.194-.196-.194-.51 0-.705l.722-.729c.195-.196.511-.197.707-.003l.003.003L6.504 5.12 11.217.36c.194-.196.51-.198.707-.004l.003.003z" transform="translate(-554 -1512) translate(461 1504) matrix(0 1 1 0 93.5 8.5)"/>
                </g>
            </g>
        </g>
    </g>
</svg>
